<?xml version="1.0" encoding="utf-8"?>
<!-- Generator: Adobe Illustrator 23.0.1, SVG Export Plug-In . SVG Version: 6.00 Build 0)  -->
<svg version="1.1" id="Lager_1" xmlns="http://www.w3.org/2000/svg" xmlns:xlink="http://www.w3.org/1999/xlink" x="0px" y="0px"
	 viewBox="0 0 50 39" style="enable-background:new 0 0 50 39;" xml:space="preserve">
<title>Group</title>
<desc>Created with Sketch.</desc>
<g>
	<path d="M44,19.3c0-0.1,0-0.2-0.2-0.3l-8.7-8.7c-0.2-0.2-0.6-0.2-0.8,0c-0.2,0.2-0.2,0.6,0,0.8l7.7,7.7c-4.2-0.3-8.2-2.1-11.2-5.2
		c-3-3-4.9-7-5.2-11.2l7.2,7.2c0.2,0.2,0.6,0.2,0.8,0c0.2-0.2,0.2-0.6,0-0.8l-8.2-8.2c-0.1-0.1-0.2-0.2-0.4-0.2
		c-5.1,0-9.8,2-13.4,5.6C8,9.6,6,14.3,6,19.4s2,9.8,5.6,13.4c3.6,3.6,8.4,5.6,13.4,5.6c2.8,0,5.6-0.6,8.1-1.8
		c0.3-0.1,0.4-0.5,0.3-0.7c-0.1-0.3-0.5-0.4-0.7-0.3c-2.4,1.1-5,1.7-7.6,1.7c-4.8,0-9.3-1.9-12.6-5.2C9,28.7,7.1,24.2,7.1,19.4
		S9,10.1,12.4,6.8c3.2-3.2,7.5-5.1,12.1-5.2c0,0.8,0.1,1.6,0.2,2.4C21.8,4,19,4.8,16.6,6.4c-0.3,0.2-0.3,0.5-0.2,0.8
		c0.2,0.2,0.4,0.4,0.8,0.2c2.3-1.5,4.9-2.3,7.7-2.3c0.8,3.5,2.5,6.7,5.1,9.4c0.2,0.2,0.4,0.4,0.6,0.5L29,14.7
		c-0.3,0-0.6-0.2-0.7-0.5l-1.4-2.8c-0.4-0.7-1.1-1.2-1.9-1.2c-0.8,0-1.5,0.4-1.9,1.2l-1.4,2.8c-0.1,0.3-0.4,0.5-0.7,0.5l-3.1,0.5
		c-0.8,0.1-1.4,0.7-1.7,1.4c-0.2,0.8,0,1.6,0.5,2.1l2.3,2.2c0.2,0.2,0.3,0.6,0.3,0.9L18.7,25c-0.1,0.8,0.2,1.6,0.8,2.1
		c0.7,0.5,1.5,0.5,2.2,0.2l2.8-1.5c0.3-0.2,0.6-0.2,0.9,0l2.8,1.5c0.3,0.2,0.6,0.2,1,0.2c0.4,0,0.9-0.1,1.2-0.4
		c0.7-0.5,1-1.3,0.8-2.1l-0.5-3.1c-0.1-0.3,0.1-0.6,0.3-0.9l2.3-2.2c0.4-0.4,0.6-0.8,0.6-1.3c1.7,1,3.5,1.7,5.4,2.1
		c-0.1,7.9-6.5,14.2-14.4,14.2c-7.9,0-14.4-6.4-14.4-14.4c0-4.1,1.8-8,4.8-10.7c0.2-0.2,0.3-0.6,0-0.8c-0.2-0.2-0.6-0.3-0.8,0
		c-3.3,2.9-5.2,7.2-5.2,11.6c0,8.5,6.9,15.5,15.5,15.5c8.4,0,15.3-6.8,15.5-15.1c0.8,0.1,1.6,0.2,2.4,0.2c-0.1,2.9-0.9,5.7-2.3,8.2
		c-1.5,2.6-3.6,4.8-6.1,6.4c-0.3,0.2-0.3,0.5-0.2,0.8c0.1,0.2,0.4,0.4,0.8,0.2c2.7-1.7,4.9-4,6.4-6.8C43.2,25.9,44,22.7,44,19.3
		C44,19.4,44,19.4,44,19.3L44,19.3z M32.8,16.9c0.1,0.4,0,0.7-0.2,1l-2.3,2.2c-0.5,0.5-0.7,1.2-0.6,1.9l0.5,3.1
		c0.1,0.4-0.1,0.7-0.4,1c-0.3,0.2-0.7,0.3-1,0.1L26,24.7c-0.3-0.2-0.6-0.2-1-0.2c-0.3,0-0.7,0.1-1,0.2l-2.8,1.5
		c-0.3,0.2-0.7,0.1-1-0.1c-0.3-0.2-0.5-0.6-0.4-1l0.5-3.1c0.1-0.7-0.1-1.4-0.6-1.9l-2.3-2.2c-0.3-0.3-0.4-0.6-0.2-1
		c0.1-0.4,0.4-0.6,0.8-0.7l3.1-0.5c0.7-0.1,1.3-0.5,1.6-1.1l1.4-2.8c0.2-0.3,0.5-0.5,0.9-0.5c0.4,0,0.7,0.2,0.9,0.5l1.4,2.8
		c0.3,0.6,0.9,1,1.6,1.1l3.1,0.5C32.2,16.3,32.6,16.5,32.8,16.9L32.8,16.9z"/>
</g>
</svg>
